<svg width="523" height="471" viewBox="0 0 523 471" fill="none" xmlns="http://www.w3.org/2000/svg">
<g clip-path="url(#clip0_2_1662)">
<path d="M199.034 55.904L190.474 54.2991L186.996 53.2292L178.703 45.7396L174.155 43.8673L170.677 41.9949H167.735L165.594 43.5998L166.397 46.2746L164.524 47.3446L163.454 46.2746L157.569 48.4145L155.161 54.5666L152.218 52.6942L146.065 55.6366L143.658 59.1138L146.601 62.3237H145.798L143.39 63.1261L143.925 67.9408L140.448 67.1384L136.167 70.6157L135.365 72.7555L135.9 75.4304L137.237 77.5702L134.83 80.5126L135.632 82.6524L130.549 82.1175L127.339 81.315L124.931 82.1175L125.734 84.2573L124.664 87.7346L128.677 92.0144L127.874 94.6892L126.269 93.0843L125.199 100.574C125.199 100.574 122.524 99.2364 121.721 98.1665C120.919 97.0966 116.638 87.4671 116.638 87.4671V86.1297L114.766 87.1997L109.415 93.6193L106.205 97.6315L105.67 101.911L107.275 106.459L108.88 110.203L107.008 113.146L101.657 117.96L98.7146 127.857L95.2368 132.404L86.9437 137.219L84.2685 139.359L77.0455 140.964L74.9054 142.836L67.4148 141.231L65.0072 145.779L63.6696 146.849L55.644 148.988L53.7714 150.593L51.8987 153.803L46.5483 155.676L40.9304 154.873L36.3826 155.408L32.6373 157.815L27.0194 163.968L21.9366 170.387L14.446 174.132L11.5033 176.807L10.1657 185.366L7.75806 186.704H5.88542L4.81535 178.412L2.67519 178.947L0 189.379L3.21023 193.926L3.47775 196.868L2.67519 204.09L0.802558 208.637V215.859L4.54783 219.872L6.9555 225.221L12.5734 231.374L16.0512 235.653L16.3187 242.073L12.3059 239.933L4.81535 232.176L4.01279 235.653L8.56061 240.201L11.2358 243.945L5.08286 243.143L6.15294 245.55L14.7136 254.912L17.9238 260.529L18.7263 265.077L27.287 275.241L31.8348 281.928L33.1724 289.15L33.4399 293.43L36.6501 300.384L44.6757 311.886L46.5483 316.433L47.8859 328.203L48.6885 334.355L48.421 337.832L47.0834 342.379L45.2107 342.914L41.198 341.309V344.252L42.0005 350.671L43.6056 353.346L46.5483 352.276L52.1662 354.149L56.7141 358.428L60.7269 360.033L68.2174 360.301L75.7079 359.498L83.466 356.556L85.8737 354.416L89.6189 349.334L93.6317 347.997L96.5744 346.659L97.377 342.379L102.46 339.437L113.963 337.565L121.186 336.227L127.339 337.565L137.505 335.692H139.377L141.785 336.227L146.601 333.82L149.811 329.273L151.148 322.318L153.021 320.981L158.371 319.911L173.62 310.014L178.435 309.211L188.601 309.746L194.219 306.537L203.315 301.722L208.13 299.582L199.034 57.2415V55.904Z" fill="#254333"/>
<path d="M201.442 58.0439L205.455 57.2415L209.468 58.3114L209.735 54.8341L205.722 50.8218L205.455 48.147L207.06 45.2047L210.003 44.9372L211.608 36.6452L214.015 37.4476L216.958 33.7029L215.353 30.4931V27.8182H217.761L218.563 25.4109L221.773 23.5385L222.308 19.7937H226.321L228.461 16.8514L234.079 18.4563L239.965 17.6538L243.175 18.7238L247.723 16.0489L251.736 14.979L250.665 9.62931L247.99 7.22196L244.245 6.68699L241.57 3.74466L247.99 1.06982L253.341 6.95447L256.016 5.08208L259.226 10.1643L265.647 11.7692L269.124 9.8968L269.659 12.3042L281.43 14.444L283.035 14.7115L287.048 17.9213L289.188 18.1888L291.328 16.0489L295.074 16.5839L295.876 18.4563L299.354 17.6538L300.959 21.1311L303.367 21.3986L305.239 18.7238L303.367 16.5839L307.112 14.7115H307.915L309.52 17.1189L311.392 17.6538L312.73 18.1888L314.068 20.3287L311.392 23.271L309.52 26.2133L307.38 26.4808L307.915 29.9581L306.309 32.3654L303.902 31.563L298.551 35.0403V39.5875L300.157 41.1924L297.749 45.4722L298.016 46.8096L295.609 48.682L292.398 54.0317L291.328 54.8341L292.398 58.5789L302.564 65.266L303.634 67.4059L308.182 69.8132L309.252 73.2905L314.335 72.488L319.685 75.9653L323.966 78.1052L326.106 82.1175L321.291 217.197L295.074 216.394L262.169 215.859L218.563 217.197L206.792 217.464L201.442 58.0439Z" fill="#254333"/>
<path d="M212.945 12.3041L218.296 13.3741L222.576 11.7692L226.589 12.8391L232.474 9.36181L234.614 6.41949L234.347 3.20968L231.404 2.40723L224.181 5.08207L218.831 3.47716L216.958 4.81458L214.55 7.75691L214.818 9.09433L212.945 12.3041Z" fill="#254333"/>
<path d="M304.704 48.1469L312.462 48.6819L314.068 46.8095L311.392 44.6697L312.195 40.9249L306.844 39.0525L306.309 40.9249L305.239 46.2746L304.704 48.1469Z" fill="#254333"/>
<path d="M359.011 264.274L398.069 267.484L426.693 270.159L458.795 273.636L462.808 269.624L466.018 268.821L468.694 269.624L474.311 269.356L476.184 270.694L477.789 271.229L480.732 271.764L482.605 273.101L483.942 274.171L485.815 276.311L486.082 278.986L487.955 279.521L490.095 278.451L491.433 276.043L493.84 277.381H496.783L497.853 274.706L497.586 272.299L504.006 269.356L506.949 270.159L509.624 271.496L516.044 270.159L515.777 277.113L512.299 283.533L509.356 291.825L505.879 299.582V304.397L503.471 310.014L500.528 316.434L497.853 319.643L495.713 322.853L494.375 326.598L484.745 332.75L477.254 341.577L474.847 347.462L471.904 352.811L469.496 360.836L466.018 364.313L461.203 369.395L458.528 376.082L456.388 382.502L454.783 392.132L453.445 393.736L435.789 382.235L436.056 378.222L434.986 375.548V371L430.171 368.86L424.553 369.663L419.47 368.593L413.317 368.325L406.094 365.918L401.546 364.046L397.533 364.848L397.266 366.453L397.533 368.058L396.731 368.325L394.858 367.256L391.916 362.441L388.705 358.964L384.425 356.556L383.087 354.149L381.215 352.009L382.285 347.462L379.61 346.258L374.661 344.653L372.387 346.392L370.514 342.112L370.247 339.705L365.164 336.227L362.756 335.425L360.348 336.762L354.73 334.622L359.011 264.274Z" fill="#254333"/>
<path d="M444.082 364.581L446.49 360.836H449.7L450.77 363.778L448.362 366.721L447.025 372.07L444.617 369.395L443.814 366.721L444.082 364.581Z" fill="#254333" stroke="#254333" stroke-width="6"/>
<path d="M354.195 336.762L350.985 394.271L357.406 398.819L360.616 396.679L365.164 398.551L372.119 402.296L378.005 406.576L389.508 401.226L391.916 399.086L395.393 394.004L396.998 396.946L395.393 400.691L394.858 402.296L401.279 406.041L405.024 408.448L406.094 410.321L416.26 408.181L424.553 400.691L431.776 398.284L440.872 398.016L449.165 398.551L452.375 395.341L434.184 383.305L433.381 381.165L434.184 377.955L433.114 376.885L432.579 372.605L430.171 371.803L426.961 371.268L424.553 372.338L421.075 371.268L418.668 370.198L415.457 371.535L413.05 370.465L405.292 367.791L402.616 366.721H399.406L398.871 369.663L397.266 370.465L394.725 370.198L392.183 366.186L390.043 362.441L386.03 359.231L382.285 357.894L380.279 354.283L380.011 350.404L379.208 347.729L376.533 346.927L374.259 346.392L372.119 348.264L369.979 345.054L368.641 343.182V340.775L364.094 338.1L361.686 338.902L358.743 338.367L354.195 336.762Z" fill="#254333"/>
<path d="M408.502 480L411.043 475.72L413.183 474.918L415.992 469.435H417.196L420.406 469.969L422.011 467.963L424.285 460.206L426.961 457.665L427.629 451.647L427.897 446.565L429.101 443.087C429.101 443.087 426.426 439.343 425.891 439.343C425.355 439.343 422.011 441.616 422.011 441.616L415.056 441.75L412.113 442.552L407.298 443.756L399.005 439.744L390.444 435.33L389.24 435.464L388.438 438.273L387.769 441.081L389.775 447.367L391.782 452.048L394.056 456.328L394.992 460.073L394.19 462.614L394.056 464.62L397.935 473.179L399.941 477.727L401.546 478.529L404.489 478.262L407.298 480H408.502Z" fill="#254333"/>
<path d="M424.82 425.567L426.426 423.962L427.362 423.828L429.101 426.369L430.572 429.044L430.438 432.388L428.031 433.057L426.292 430.114L425.088 426.904L424.82 425.567Z" fill="#254333"/>
<path d="M381.616 416.74L380.412 419.95V424.096L381.349 425.567L382.552 425.835L383.756 424.363L384.826 421.154L384.693 418.613L384.291 417.543L383.489 416.473L381.616 416.74Z" fill="#254333"/>
<path d="M328.514 83.455L332.526 84.7924L338.412 86.9323L341.622 89.3396L344.297 94.9568L349.113 96.8292L354.195 100.841L358.743 99.7715L363.291 99.2365L366.234 95.2243L369.444 89.6071L372.922 85.0599L375.329 77.0354L375.864 71.9532L379.342 62.8587L377.737 58.579L379.075 51.3569L378.272 48.1471L376.934 44.9373L379.075 40.925L381.215 37.7152L380.68 31.8306L383.355 30.4932L385.228 28.0858L381.75 24.876L387.635 15.7816L389.775 6.6871L390.578 4.27974L393.521 2.67484L396.196 0L397.533 0.534968L397.266 2.40736L400.476 5.0822L400.744 16.584L402.349 18.4564L404.489 19.7938L402.349 23.5386L406.897 28.8883V31.0281L408.234 35.0404L407.432 44.6698L409.304 51.3569L410.374 56.1716L413.585 57.7765L417.062 54.5667L421.343 53.7643L422.413 58.3115L428.031 63.1262L430.706 65.2661L430.438 73.0231L431.776 79.4427L431.508 83.455L430.973 87.1998L437.126 100.039L438.999 103.516L438.731 109.401L436.859 113.681L440.337 115.018L439.534 121.438L439.266 124.113L443.012 128.66L448.63 132.405L454.248 132.94L455.318 136.149L456.388 139.894L462.541 140.964L465.216 146.581L467.624 144.709L471.904 148.721L470.566 151.931L473.509 158.35L476.452 165.038L477.522 175.202V180.552L481.267 181.354L482.337 182.424L482.872 176.539L485.28 178.144L491.165 184.564L493.573 188.844L492.235 197.403L498.656 206.23L502.401 207.033L504.809 210.777L505.611 215.325L510.427 218.802L511.497 222.279L512.834 225.756L514.974 227.629L514.707 232.176L516.847 235.921L516.312 237.793L514.707 240.201L514.974 250.632L514.707 253.307L512.567 253.04L513.904 256.517L516.312 261.867L515.777 268.554L509.356 269.089L504.006 266.949L495.981 271.229L495.445 275.241L492.235 274.974L490.898 274.706L488.49 277.648L487.152 277.916L487.687 275.241L485.815 273.101L484.477 271.229L480.999 269.891H477.522L475.917 267.216L469.496 268.286L465.483 266.147L461.738 267.484L457.993 271.229L415.992 267.216L392.986 264.542L361.686 262.402L358.743 262.134L361.686 219.337L323.698 217.464L328.514 83.455Z" fill="#254333"/>
<path d="M343.896 85.4612L345.635 85.7287L347.775 85.06L350.718 83.5888L352.189 83.3213L352.59 81.8502L352.055 80.6465L348.042 79.9778L345.902 80.6465L344.163 81.9839L343.093 83.4551L342.96 84.9262L343.896 85.4612Z" fill="#254333"/>
<path d="M516.847 226.292L517.65 230.036L519.522 230.571L521.93 227.094L523 222.279L520.057 220.139L518.185 221.477L516.847 226.292Z" fill="#254333"/>
<path d="M348.711 393.068L344.966 392.533L342.157 389.323L337.074 380.095L336.004 376.617L337.074 373.943L335.737 368.058L334.8 362.307L331.189 359.097L327.31 355.887L324.367 356.289L322.628 356.824L319.15 356.422L319.418 354.684L322.762 349.067L323.431 346.124L323.297 343.182L318.883 336.227L317.947 338.902L315.004 348.933L312.73 350.003H306.443L305.106 346.927L306.577 345.857L309.921 345.723L310.456 343.583L311.259 336.629L312.73 331.279L316.475 328.069L317.412 326.464L317.278 322.184L319.017 321.248L319.552 320.579L316.475 312.02L315.271 312.287L315.004 317.102L313.131 319.108L309.787 324.859L308.182 328.069L304.972 328.604L300.157 331.948L296.545 337.163L293.469 342.112L290.392 344.386L287.449 343.182L284.373 332.884L284.239 330.209L280.494 326.598L277.952 320.847L274.608 319.643L272.201 317.236L271.131 315.23L272.736 312.287L270.061 310.816L268.723 308.81L266.984 306.002L264.443 304.798L260.296 306.135L258.156 304.53L255.347 303.059L252.538 302.524L251.201 303.594H249.06L245.85 301.321L241.035 298.378L236.888 296.372L235.417 296.105L234.213 296.372L232.207 297.442L225.92 297.576L210.404 298.646L207.06 219.203L255.481 218.267L293.602 218.401L332.794 220.005L359.546 221.075L349.514 393.335L348.711 393.068Z" fill="#254333"/>
<path d="M302.297 354.951L302.029 357.893L304.169 359.498H306.845L314.335 358.963L317.01 356.289L314.335 353.346H311.66L302.297 354.951Z" fill="#254333"/>
</g>
<defs>
<clipPath id="clip0_2_1662">
<rect width="523" height="480" fill="white"/>
</clipPath>
</defs>
</svg>
