<svg width="480" height="120" viewBox="0 0 480 120" fill="none" xmlns="http://www.w3.org/2000/svg">
<path d="M103.951 51.3002C101.296 51.3002 98.83 51.0265 96.5692 50.4873C94.3083 49.94 92.3359 49.1673 90.6592 48.1452C88.9826 47.1311 87.6701 45.8675 86.7369 44.3625C85.8038 42.8494 85.3334 41.1109 85.3334 39.131C85.3334 38.9299 85.3334 38.7366 85.3334 38.5355C85.3334 38.3344 85.3562 38.1654 85.4017 38.0123L95.5526 38.0123C95.5526 38.1089 95.5526 38.2215 95.5526 38.3503C95.5526 38.4712 95.5526 38.5838 95.5526 38.6883C95.5981 39.8796 96.0153 40.8454 96.8119 41.5858C97.6009 42.3263 98.6555 42.8574 99.9604 43.1794C101.265 43.5013 102.646 43.6623 104.087 43.6623C105.438 43.6623 106.758 43.5657 108.04 43.3645C109.322 43.1633 110.399 42.7689 111.257 42.1733C112.122 41.5778 112.554 40.789 112.554 39.7991C112.554 38.5595 112.038 37.6503 111.014 37.0547C109.99 36.4592 108.579 35.9924 106.781 35.6463C104.983 35.3002 102.965 34.9057 100.727 34.4549C98.8603 34.1088 97.0775 33.6663 95.3705 33.1191C93.6711 32.5716 92.1386 31.8716 90.7882 31.0023C89.4378 30.133 88.3605 29.0223 87.5715 27.6622C86.7749 26.3021 86.3804 24.604 86.3804 22.5757C86.3804 20.4511 86.8204 18.6158 87.708 17.0786C88.5957 15.5414 89.855 14.2858 91.4861 13.2961C93.1172 12.3061 95.0443 11.5737 97.2596 11.1069C99.4748 10.6401 101.865 10.3985 104.429 10.3985C106.811 10.3985 109.049 10.632 111.151 11.1069C113.252 11.5737 115.073 12.2737 116.605 13.1832C118.146 14.1008 119.367 15.2517 120.277 16.6361C121.188 18.0202 121.643 19.5817 121.643 21.312C121.643 21.6098 121.643 21.8835 121.643 22.1249C121.643 22.3746 121.62 22.5676 121.575 22.7207L111.431 22.7207L111.431 22.1975C111.431 21.2558 111.113 20.4913 110.483 19.8957C109.853 19.2999 108.988 18.8412 107.896 18.5194C106.796 18.1974 105.552 18.0364 104.148 18.0364C103.45 18.0364 102.654 18.0848 101.766 18.1814C100.878 18.2778 100.029 18.4549 99.2093 18.7043C98.3899 18.9541 97.7375 19.2999 97.252 19.7427C96.7664 20.1854 96.516 20.7567 96.516 21.4489C96.516 22.3422 96.9561 23.0425 97.8437 23.5657C98.7313 24.0889 99.9073 24.4911 101.379 24.7889C102.851 25.0867 104.444 25.4088 106.174 25.7549C108.131 26.1973 110.096 26.6563 112.053 27.1309C114.011 27.5979 115.809 28.2337 117.44 29.0223C119.071 29.8112 120.353 30.9539 121.286 32.435C122.219 33.9158 122.682 35.9038 122.682 38.3746C122.682 40.7488 122.227 42.7689 121.316 44.4269C120.406 46.0848 119.116 47.4209 117.432 48.435C115.756 49.4491 113.768 50.1814 111.484 50.6241C109.224 51.0748 106.705 51.3002 103.951 51.3002Z" fill="white"/>
<path d="M143.63 51.3002C139.245 51.3002 135.854 50.109 133.449 47.7347C131.044 45.3604 129.845 41.626 129.845 36.5233L129.845 11.3562L140.064 11.3562L140.064 34.7367C140.064 36.1772 140.223 37.3764 140.557 38.3343C140.883 39.3 141.377 40.0808 142.029 40.6764C142.682 41.2719 143.463 41.7065 144.373 41.9721C145.284 42.2377 146.323 42.3826 147.484 42.3826C149.16 42.3826 150.693 41.9883 152.066 41.1915C153.439 40.4027 154.547 39.3 155.389 37.8915C156.231 36.4831 156.648 34.8816 156.648 33.1028L156.648 11.3481L166.936 11.3481L166.936 50.3987L158.538 50.3987L157.771 44.4591L157.278 44.4591C156.155 45.9963 154.896 47.268 153.5 48.282C152.096 49.2961 150.549 50.0527 148.85 50.5436C147.142 51.0507 145.405 51.3002 143.63 51.3002Z" fill="white"/>
<path d="M176.168 63.9919L176.168 11.3559L184.498 11.3559L185.409 16.9977L185.902 16.9977C187.351 14.6236 189.179 12.9414 191.395 11.9514C193.61 10.9615 196.022 10.4707 198.64 10.4707C202.046 10.4707 204.997 11.1869 207.493 12.6274C209.989 14.0602 211.916 16.2896 213.267 19.3076C214.617 22.3258 215.292 26.1891 215.292 30.8892C215.292 35.4928 214.602 39.3077 213.229 42.3259C211.856 45.344 209.951 47.5975 207.524 49.0784C205.096 50.5593 202.251 51.3078 198.989 51.3078C197.358 51.3078 195.78 51.1066 194.262 50.7122C192.745 50.3178 191.357 49.7062 190.097 48.8933C188.838 48.0804 187.76 47.0744 186.881 45.8832L186.463 45.8832L186.463 64L176.168 64L176.168 63.9919ZM195.696 42.4627C197.798 42.4627 199.52 42.0522 200.878 41.2393C202.228 40.4265 203.23 39.187 203.89 37.5291C204.542 35.871 204.868 33.9072 204.868 31.6298L204.868 30.1487C204.868 27.7746 204.542 25.7704 203.89 24.1368C203.237 22.5029 202.236 21.2794 200.878 20.4587C199.52 19.6456 197.775 19.2352 195.628 19.2352C193.625 19.2352 191.926 19.678 190.553 20.5713C189.179 21.4646 188.125 22.7362 187.404 24.3941C186.676 26.0522 186.319 28.0241 186.319 30.2937L186.319 31.332C186.319 33.0139 186.532 34.5592 186.949 35.9676C187.366 37.3761 187.965 38.5672 188.732 39.5331C189.498 40.4989 190.454 41.2313 191.599 41.7222C192.745 42.2212 194.111 42.4627 195.696 42.4627Z" fill="white"/>
<path d="M242.087 51.3002C237.656 51.3002 233.886 50.5677 230.783 49.111C227.68 47.6542 225.313 45.4088 223.682 42.3907C222.051 39.3726 221.231 35.5333 221.231 30.8815C221.231 26.2297 222.043 22.3904 223.682 19.3724C225.313 16.3542 227.657 14.117 230.715 12.6521C233.772 11.1953 237.467 10.4629 241.806 10.4629C246.055 10.4629 249.658 11.1791 252.617 12.62C255.576 14.0524 257.821 16.2416 259.331 19.1872C260.848 22.1331 261.607 25.8271 261.607 30.2859L261.607 33.3282L231.799 33.3282C231.891 35.606 232.338 37.4974 233.127 39.0103C233.916 40.5234 235.077 41.6261 236.594 42.3182C238.112 43.0104 239.985 43.3564 242.231 43.3564C243.346 43.3564 244.423 43.2196 245.448 42.946C246.472 42.6724 247.405 42.2538 248.247 41.6824C249.089 41.111 249.787 40.4108 250.349 39.5657C250.91 38.7287 251.213 37.7627 251.259 36.6683L261.547 36.6683C261.547 38.946 261.068 40.9983 260.113 42.8333C259.157 44.6683 257.837 46.1975 256.16 47.4369C254.483 48.6764 252.45 49.6261 250.068 50.2941C247.686 50.9621 245.031 51.3002 242.087 51.3002ZM231.944 26.5758L250.834 26.5758C250.834 25.1914 250.614 23.976 250.167 22.9379C249.719 21.8996 249.105 21.0303 248.316 20.3381C247.519 19.6462 246.586 19.1389 245.516 18.8171C244.446 18.495 243.255 18.3341 241.95 18.3341C239.948 18.3341 238.233 18.64 236.807 19.2599C235.381 19.8794 234.273 20.8049 233.484 22.0446C232.687 23.2919 232.171 24.7969 231.944 26.5758Z" fill="white"/>
<path d="M269.171 50.4066L269.171 11.3562L277.569 11.3562L278.411 17.7385L278.905 17.7385C279.367 16.4025 280.05 15.163 280.93 14.0283C281.818 12.8934 282.903 12.0001 284.185 11.3562C285.467 10.7123 286.923 10.3902 288.562 10.3902C289.404 10.3902 290.17 10.4629 290.869 10.6157C291.567 10.7606 292.173 10.9377 292.689 11.1389L292.689 20.6439L288.631 20.6439C287.045 20.6439 285.679 20.9015 284.534 21.4247C283.388 21.9476 282.432 22.6882 281.666 23.6541C280.9 24.6198 280.338 25.7466 279.989 27.0344C279.64 28.3221 279.466 29.7789 279.466 31.4125L279.466 50.4147L269.171 50.4147L269.171 50.4066Z" fill="white"/>
<path d="M311.505 51.3002C308.941 51.3002 306.839 50.8816 305.208 50.0366C303.577 49.1995 302.371 47.944 301.604 46.286C300.838 44.6281 300.451 42.5596 300.451 40.0888L300.451 19.5254L294.784 19.5254L294.784 11.3564L300.869 11.3564L302.826 0.000129348L310.731 0.000129003L310.731 11.3564L318.985 11.3564L318.985 19.5254L310.731 19.5254L310.731 38.5274C310.731 40.0083 311.02 41.1351 311.604 41.9077C312.188 42.6723 313.295 43.0586 314.927 43.0586L318.985 43.0586L318.985 50.109C318.379 50.3102 317.635 50.4953 316.747 50.6643C315.86 50.8333 314.949 50.9863 314.016 51.107C313.091 51.2357 312.256 51.3002 311.505 51.3002Z" fill="white"/>
<path d="M345.097 51.3002C340.667 51.3002 336.896 50.5677 333.793 49.111C330.69 47.6542 328.323 45.4088 326.692 42.3907C325.061 39.3726 324.242 35.5333 324.242 30.8815C324.242 26.2297 325.061 22.3904 326.692 19.3724C328.323 16.3542 330.667 14.117 333.725 12.6521C336.782 11.1953 340.477 10.4629 344.817 10.4629C349.057 10.4629 352.669 11.1791 355.626 12.62C358.587 14.0524 360.831 16.2416 362.349 19.1872C363.868 22.1331 364.625 25.8271 364.625 30.2859L364.625 33.3282L334.817 33.3282C334.909 35.606 335.356 37.4974 336.145 39.0103C336.934 40.5234 338.095 41.6261 339.612 42.3182C341.13 43.0104 343.003 43.3564 345.249 43.3564C346.372 43.3564 347.441 43.2196 348.466 42.946C349.49 42.6724 350.423 42.2538 351.265 41.6824C352.107 41.111 352.805 40.4108 353.367 39.5657C353.928 38.7287 354.231 37.7627 354.277 36.6683L364.563 36.6683C364.563 38.946 364.086 40.9983 363.131 42.8333C362.174 44.6683 360.855 46.1975 359.178 47.4369C357.5 48.6764 355.467 49.6261 353.093 50.2941C350.696 50.9621 348.033 51.3002 345.097 51.3002ZM334.946 26.5758L353.844 26.5758C353.844 25.1914 353.625 23.976 353.177 22.9379C352.737 21.8996 352.115 21.0303 351.326 20.3381C350.529 19.6462 349.596 19.1389 348.526 18.8171C347.449 18.495 346.266 18.3341 344.961 18.3341C342.958 18.3341 341.243 18.64 339.817 19.2599C338.391 19.8794 337.283 20.8049 336.494 22.0446C335.697 23.2919 335.181 24.7969 334.946 26.5758Z" fill="white"/>
<path d="M383.798 51.3002C382.166 51.3002 380.535 51.1231 378.895 50.777C377.264 50.4309 375.807 49.8595 374.526 49.0708C373.245 48.282 372.204 47.1553 371.417 45.6905C370.619 44.2337 370.225 42.3665 370.225 40.0888C370.225 37.1673 370.877 34.8092 372.183 32.9982C373.488 31.1953 375.376 29.8352 377.849 28.9179C380.322 28.0003 383.25 27.3966 386.635 27.0988C390.017 26.8011 393.736 26.6561 397.794 26.6561L397.794 24.3543C397.794 23.0182 397.527 21.9157 396.991 21.0545C396.451 20.1855 395.618 19.5092 394.472 19.0103C393.326 18.5192 391.802 18.2698 389.89 18.2698C388.213 18.2698 386.778 18.455 385.589 18.8251C384.397 19.1955 383.485 19.6782 382.857 20.2737C382.226 20.8693 381.907 21.5615 381.907 22.3503L381.907 23.2437L371.832 23.2437C371.786 22.9459 371.749 22.6964 371.727 22.5031C371.703 22.302 371.689 22.0607 371.689 21.7629C371.689 19.4852 372.409 17.4971 373.857 15.7909C375.308 14.0847 377.417 12.7729 380.192 11.8553C382.97 10.9379 386.292 10.479 390.162 10.479C394.032 10.479 397.285 10.9217 399.925 11.8151C402.56 12.7084 404.577 14.0928 405.979 15.9761C407.376 17.8594 408.083 20.2578 408.083 23.1794L408.083 40.3303C408.083 41.2237 408.301 41.8997 408.749 42.3746C409.188 42.8414 409.744 43.0828 410.397 43.0828L413.331 43.0828L413.331 50.0607C412.816 50.3102 412.004 50.5678 410.882 50.8414C409.757 51.1151 408.452 51.2519 406.958 51.2519C405.229 51.2519 403.811 51.0185 402.686 50.5436C401.564 50.0768 400.693 49.4329 400.062 48.612C399.434 47.7911 398.978 46.8414 398.698 45.7549L398.137 45.7549C397.158 46.8414 395.95 47.8233 394.531 48.6845C393.105 49.5537 391.497 50.2056 389.699 50.6482C387.908 51.0748 385.936 51.3002 383.798 51.3002ZM386.87 43.284C388.221 43.284 389.539 43.0989 390.823 42.7287C392.104 42.3585 393.258 41.8353 394.289 41.1673C395.313 40.4993 396.155 39.6542 396.807 38.64C397.46 37.626 397.786 36.5235 397.786 35.3405L397.786 33.1915C394.146 33.1915 391.042 33.3764 388.477 33.7468C385.915 34.1169 383.941 34.7368 382.568 35.6058C381.195 36.4751 380.505 37.6743 380.505 39.2034C380.505 40.1934 380.786 40.9822 381.347 41.5778C381.907 42.1733 382.673 42.6079 383.652 42.8735C384.631 43.1472 385.71 43.284 386.87 43.284Z" fill="white"/>
<path d="M418.15 50.4065L418.15 11.3559L426.548 11.3559L427.39 17.2232L427.883 17.2232C428.862 15.686 430.038 14.4144 431.419 13.4004C432.791 12.3861 434.277 11.6459 435.863 11.171C437.449 10.7042 439.08 10.4626 440.766 10.4626C443.611 10.4626 446.014 10.9939 447.972 12.0562C449.929 13.1186 451.424 14.841 452.448 17.2151L452.942 17.2151C453.967 15.6779 455.172 14.4063 456.545 13.3923C457.917 12.378 459.436 11.6378 461.097 11.1629C462.75 10.6961 464.444 10.4548 466.172 10.4548C468.926 10.4548 471.269 10.9537 473.206 11.9355C475.139 12.9255 476.641 14.5111 477.72 16.684C478.788 18.8651 479.327 21.6337 479.327 24.998L479.327 50.3904L468.972 50.3904L468.972 26.857C468.972 25.4729 468.821 24.2815 468.516 23.2918C468.214 22.3018 467.78 21.513 467.219 20.9174C466.658 20.3219 465.946 19.9034 465.088 19.654C464.223 19.4042 463.306 19.2836 462.327 19.2836C460.787 19.2836 459.374 19.6699 458.093 20.4345C456.812 21.199 455.787 22.2937 455.013 23.7022C454.247 25.1106 453.859 26.7123 453.859 28.4909L453.859 50.3904L443.641 50.3904L443.641 26.857C443.641 25.4729 443.473 24.2815 443.147 23.2915C442.821 22.3018 442.365 21.513 441.782 20.9174C441.197 20.3219 440.499 19.9034 439.679 19.654C438.862 19.4043 437.921 19.2836 436.842 19.2836C435.302 19.2836 433.892 19.6699 432.611 20.4345C431.327 21.199 430.31 22.2937 429.566 23.7022C428.824 25.1106 428.444 26.7123 428.444 28.4909L428.444 50.3904L418.15 50.3904L418.15 50.4065Z" fill="white"/>
<path d="M55.2927 13.105H70.0953V18.7706C70.0953 26.4545 63.8293 32.665 56.0766 32.665H55.2927V13.105ZM34.226 4.8761H55.2927V58.3588H52.7859C37.5148 58.3588 34.4602 47.8027 34.4602 38.4093L34.226 4.8761ZM0 16.9863C0 26.5332 6.89124 30.027 14.5665 31.1916H0V58.5143H14.0187C28.1167 58.5143 29.7601 52.3037 29.7601 46.4041C29.7601 39.1844 24.7485 34.1404 16.9939 32.1988H29.7601V4.8761H15.7415C1.6454 4.8761 0 11.0866 0 16.9863Z" fill="white"/>
<path d="M290.501 109H285.143L297.183 75.5455H303.014L315.053 109H309.695L300.237 81.6222H299.976L290.501 109ZM291.4 95.8991H308.781V100.146H291.4V95.8991ZM335.387 98.5945V83.9091H340.287V109H335.485V104.655H335.223C334.646 105.994 333.72 107.111 332.446 108.004C331.183 108.886 329.609 109.327 327.725 109.327C326.114 109.327 324.687 108.973 323.445 108.265C322.215 107.546 321.246 106.484 320.538 105.08C319.841 103.675 319.492 101.938 319.492 99.8686V83.9091H324.377V99.2805C324.377 100.99 324.85 102.352 325.798 103.364C326.745 104.377 327.976 104.884 329.49 104.884C330.404 104.884 331.314 104.655 332.218 104.197C333.132 103.74 333.889 103.049 334.488 102.123C335.098 101.197 335.397 100.021 335.387 98.5945ZM365.652 90.0348L361.225 90.8189C361.04 90.2526 360.746 89.7135 360.343 89.2017C359.951 88.6899 359.417 88.2706 358.742 87.9439C358.067 87.6172 357.223 87.4538 356.21 87.4538C354.827 87.4538 353.672 87.7642 352.747 88.3849C351.821 88.9948 351.358 89.7843 351.358 90.7536C351.358 91.5921 351.669 92.2673 352.289 92.7791C352.91 93.291 353.912 93.7102 355.295 94.0369L359.281 94.9517C361.59 95.4853 363.31 96.3075 364.443 97.4183C365.575 98.5291 366.142 99.9721 366.142 101.747C366.142 103.25 365.706 104.589 364.835 105.766C363.975 106.931 362.771 107.846 361.225 108.51C359.689 109.174 357.909 109.506 355.883 109.506C353.074 109.506 350.781 108.907 349.006 107.71C347.231 106.501 346.142 104.786 345.739 102.564L350.46 101.845C350.754 103.076 351.358 104.007 352.273 104.638C353.188 105.259 354.38 105.57 355.85 105.57C357.451 105.57 358.731 105.237 359.689 104.573C360.648 103.898 361.127 103.076 361.127 102.107C361.127 101.322 360.833 100.664 360.245 100.13C359.667 99.5964 358.78 99.1934 357.582 98.9212L353.335 97.9901C350.993 97.4564 349.262 96.607 348.14 95.4418C347.029 94.2765 346.474 92.8009 346.474 91.0149C346.474 89.5339 346.888 88.2379 347.716 87.1271C348.543 86.0163 349.687 85.1506 351.146 84.5298C352.605 83.8982 354.277 83.5824 356.161 83.5824C358.873 83.5824 361.007 84.1705 362.564 85.3466C364.122 86.5118 365.151 88.0746 365.652 90.0348ZM383.224 83.9091V87.8295H369.519V83.9091H383.224ZM373.194 77.8977H378.079V101.633C378.079 102.58 378.22 103.294 378.503 103.773C378.787 104.241 379.151 104.562 379.598 104.737C380.055 104.9 380.551 104.982 381.084 104.982C381.476 104.982 381.819 104.954 382.113 104.9C382.407 104.845 382.636 104.802 382.8 104.769L383.682 108.804C383.398 108.913 382.996 109.022 382.473 109.131C381.95 109.25 381.297 109.316 380.513 109.327C379.228 109.348 378.03 109.12 376.919 108.641C375.808 108.161 374.91 107.421 374.224 106.419C373.537 105.417 373.194 104.159 373.194 102.646V77.8977ZM388.627 109V83.9091H393.348V87.8949H393.609C394.067 86.5445 394.873 85.4827 396.027 84.7095C397.192 83.9254 398.51 83.5334 399.98 83.5334C400.285 83.5334 400.644 83.5443 401.058 83.5661C401.483 83.5878 401.815 83.6151 402.055 83.6477V88.3196C401.859 88.2652 401.51 88.2053 401.009 88.1399C400.508 88.0637 400.007 88.0256 399.506 88.0256C398.352 88.0256 397.323 88.2706 396.419 88.7607C395.526 89.2398 394.818 89.9096 394.295 90.7699C393.773 91.6193 393.511 92.5885 393.511 93.6776V109H388.627ZM413.359 109.555C411.769 109.555 410.331 109.261 409.046 108.673C407.761 108.074 406.743 107.209 405.991 106.076C405.251 104.943 404.881 103.555 404.881 101.911C404.881 100.495 405.153 99.3295 405.697 98.4148C406.242 97.5 406.977 96.7758 407.903 96.2422C408.828 95.7086 409.863 95.3056 411.006 95.0334C412.15 94.7611 413.315 94.5542 414.502 94.4126C416.005 94.2384 417.225 94.0968 418.161 93.9879C419.098 93.8681 419.778 93.6776 420.203 93.4162C420.628 93.1548 420.84 92.7301 420.84 92.142V92.0277C420.84 90.6011 420.437 89.4957 419.631 88.7116C418.836 87.9276 417.649 87.5355 416.07 87.5355C414.426 87.5355 413.13 87.9003 412.183 88.63C411.246 89.3487 410.598 90.1491 410.239 91.0312L405.648 89.9858C406.193 88.4612 406.988 87.2306 408.033 86.294C409.09 85.3466 410.304 84.6605 411.676 84.2358C413.048 83.8002 414.491 83.5824 416.005 83.5824C417.007 83.5824 418.069 83.7022 419.19 83.9418C420.323 84.1705 421.379 84.5952 422.359 85.2159C423.35 85.8366 424.162 86.7242 424.793 87.8786C425.425 89.022 425.741 90.5085 425.741 92.3381V109H420.971V105.57H420.775C420.459 106.201 419.985 106.822 419.354 107.432C418.722 108.042 417.911 108.548 416.92 108.951C415.929 109.354 414.742 109.555 413.359 109.555ZM414.42 105.635C415.771 105.635 416.925 105.368 417.884 104.835C418.853 104.301 419.588 103.604 420.089 102.744C420.601 101.872 420.857 100.941 420.857 99.9503V96.7159C420.682 96.8902 420.345 97.0535 419.844 97.206C419.354 97.3475 418.793 97.4728 418.161 97.5817C417.53 97.6797 416.914 97.7723 416.315 97.8594C415.716 97.9356 415.215 98.0009 414.812 98.0554C413.865 98.1752 412.999 98.3767 412.215 98.6598C411.442 98.9429 410.821 99.3513 410.353 99.8849C409.896 100.408 409.667 101.105 409.667 101.976C409.667 103.185 410.113 104.099 411.006 104.72C411.899 105.33 413.037 105.635 414.42 105.635ZM437.131 75.5455V109H432.246V75.5455H437.131ZM443.701 109V83.9091H448.586V109H443.701ZM446.168 80.0376C445.319 80.0376 444.589 79.7545 443.979 79.1882C443.38 78.611 443.081 77.925 443.081 77.13C443.081 76.3241 443.38 75.638 443.979 75.0717C444.589 74.4946 445.319 74.206 446.168 74.206C447.017 74.206 447.742 74.4946 448.341 75.0717C448.95 75.638 449.255 76.3241 449.255 77.13C449.255 77.925 448.95 78.611 448.341 79.1882C447.742 79.7545 447.017 80.0376 446.168 80.0376ZM462.458 109.555C460.868 109.555 459.431 109.261 458.146 108.673C456.861 108.074 455.843 107.209 455.091 106.076C454.351 104.943 453.98 103.555 453.98 101.911C453.98 100.495 454.253 99.3295 454.797 98.4148C455.342 97.5 456.077 96.7758 457.002 96.2422C457.928 95.7086 458.963 95.3056 460.106 95.0334C461.249 94.7611 462.415 94.5542 463.602 94.4126C465.105 94.2384 466.324 94.0968 467.261 93.9879C468.197 93.8681 468.878 93.6776 469.303 93.4162C469.727 93.1548 469.94 92.7301 469.94 92.142V92.0277C469.94 90.6011 469.537 89.4957 468.731 88.7116C467.936 87.9276 466.749 87.5355 465.17 87.5355C463.526 87.5355 462.23 87.9003 461.282 88.63C460.346 89.3487 459.698 90.1491 459.338 91.0312L454.748 89.9858C455.293 88.4612 456.088 87.2306 457.133 86.294C458.189 85.3466 459.404 84.6605 460.776 84.2358C462.148 83.8002 463.591 83.5824 465.105 83.5824C466.106 83.5824 467.168 83.7022 468.29 83.9418C469.423 84.1705 470.479 84.5952 471.459 85.2159C472.45 85.8366 473.261 86.7242 473.893 87.8786C474.525 89.022 474.84 90.5085 474.84 92.3381V109H470.07V105.57H469.874C469.559 106.201 469.085 106.822 468.453 107.432C467.822 108.042 467.01 108.548 466.019 108.951C465.028 109.354 463.841 109.555 462.458 109.555ZM463.52 105.635C464.87 105.635 466.025 105.368 466.983 104.835C467.952 104.301 468.687 103.604 469.188 102.744C469.7 101.872 469.956 100.941 469.956 99.9503V96.7159C469.782 96.8902 469.444 97.0535 468.943 97.206C468.453 97.3475 467.892 97.4728 467.261 97.5817C466.629 97.6797 466.014 97.7723 465.415 97.8594C464.816 97.9356 464.315 98.0009 463.912 98.0554C462.965 98.1752 462.099 98.3767 461.315 98.6598C460.542 98.9429 459.921 99.3513 459.453 99.8849C458.995 100.408 458.767 101.105 458.767 101.976C458.767 103.185 459.213 104.099 460.106 104.72C460.999 105.33 462.137 105.635 463.52 105.635Z" fill="white"/>
</svg>
