<svg width="292" height="292" viewBox="0 0 292 292" fill="none" xmlns="http://www.w3.org/2000/svg">
<rect width="292" height="292" fill="url(#paint0_linear_2_1520)"/>
<path d="M193 242C210.673 242 225 227.673 225 210C225 192.327 210.673 178 193 178C175.327 178 161 192.327 161 210C161 227.673 175.327 242 193 242Z" fill="#001B69"/>
<path d="M176.9 197.2L193.9 206.8V204.7L180.7 197.2H176.9Z" fill="#EC2024"/>
<path d="M176.9 187.6L193.8 178H193C191.9 178 190.9 178 189.8 178.2L173.1 187.6H176.9Z" fill="#EC2024"/>
<path d="M193.9 195.3H171V206.8H172.7V198L188.2 206.8H193.9L176.9 197.2H180.7L193.9 204.7V203.6L182.6 197.2H193.9V195.3Z" fill="white"/>
<path d="M164.6 195.3C164.3 195.9 164 196.6 163.7 197.2H163.8H163.6C163.4 197.8 163.2 198.2 163 198.7L164.2 198V206.8H165.9V195.3H164.6Z" fill="white"/>
<path d="M193.9 178L177 187.6H173.2L189.9 178.2C189.1 178.2 188.2 178.4 187.4 178.6L172.8 186.9V185.4C172.2 185.9 171.7 186.4 171.1 186.9V189.7H194V187.8H182.7L194 181.4V178H193.9Z" fill="white"/>
<path d="M165.9 206.8H171V195.3H193.9V189.5H171V186.7C168.4 189.2 166.2 192 164.6 195.2H165.9V206.7V206.8Z" fill="#EC2024"/>
<path d="M210.1 220.4L210.6 222L212.2 221.4L211.3 222.8L212.7 223.7H211C211 223.8 211.2 225.5 211.2 225.5L210 224.3L208.8 225.5L209 223.8H207.3C207.3 223.7 208.7 222.8 208.7 222.8L207.8 221.4L209.4 222L209.9 220.4H210.1Z" fill="white"/>
<path d="M200.7 205.6L201.2 207.2L202.8 206.6L201.9 208L203.3 208.9H201.6C201.6 209 201.8 210.7 201.8 210.7L200.6 209.5L199.4 210.7L199.6 209H197.9C197.9 208.9 199.3 208 199.3 208L198.4 206.6L200 207.2L200.5 205.6H200.7Z" fill="white"/>
<path d="M210.1 195.5L210.6 197.1L212.2 196.5L211.3 197.9L212.7 198.8H211C211 198.9 211.2 200.6 211.2 200.6L210 199.4L208.8 200.6L209 198.9H207.3C207.3 198.8 208.7 197.9 208.7 197.9L207.8 196.5L209.4 197.1L209.9 195.5H210.1Z" fill="white"/>
<path d="M218.4 203.1L218.9 204.7L220.5 204.1L219.6 205.5L221 206.4H219.3C219.3 206.5 219.5 208.2 219.5 208.2L218.3 207L217.1 208.2L217.3 206.5H215.6C215.6 206.4 217 205.5 217 205.5L216.1 204.1L217.7 204.7L218.2 203.1H218.4Z" fill="white"/>
<path d="M213.8 210.6L214.2 211.6H215.3L214.5 212.4L214.8 213.4L213.9 212.8L213 213.4L213.3 212.4L212.5 211.7H213.6L214 210.6H213.8Z" fill="white"/>
<path d="M175.9 214.3L177.1 218L180.7 216.6L178.6 219.8L181.9 221.8L178 222.1L178.5 225.9L175.8 223.1L173.1 225.9L173.6 222.1L169.7 221.8L173 219.8L170.9 216.6L174.5 218L175.7 214.3H175.9Z" fill="white"/>
<path d="M76 116.4C76 135.6 89.9 142.7 105.3 145H76V200H104.2C132.6 200 135.9 187.5 135.9 175.6C135.9 163.7 125.8 150.9 110.2 147H135.9V92H107.7C79.3 92 76 104.5 76 116.4Z" fill="white"/>
<path d="M187.2 167.9V148H188.8C204.4 148 217 135.5 217 120V108.6H187.2V92H144.8L145.3 159.5C145.3 170.6 147.4 182.4 155.3 190.3C161.5 178.3 173.3 169.7 187.2 167.9Z" fill="white"/>
<defs>
<linearGradient id="paint0_linear_2_1520" x1="146" y1="0" x2="146" y2="292" gradientUnits="userSpaceOnUse">
<stop stop-color="#00833E"/>
<stop offset="1" stop-color="#FECE00"/>
</linearGradient>
</defs>
</svg>
